<svg xmlns="http://www.w3.org/2000/svg"   viewBox="222 161 806 915" role="img" aria-label="Dystil logo smoothed contour mark"><defs><linearGradient id="w" x1="0" y1="203" x2="0" y2="1036" gradientUnits="userSpaceOnUse"><stop offset="0" stop-color="#fff"/><stop offset="0.6" stop-color="#f8f8f8"/><stop offset="1" stop-color="#e7e7e7"/></linearGradient><linearGradient id="o" x1="480" y1="425" x2="767" y2="697" gradientUnits="userSpaceOnUse"><stop offset="0" stop-color="#ff6d18"/><stop offset="0.56" stop-color="#ff4d0b"/><stop offset="1" stop-color="#e93c05"/></linearGradient></defs><path d="M 607 203 L 587 206 L 560 214 L 537 225 L 525 233 L 429 320 L 318 417 L 304 431 L 296 441 L 283 462 L 273 484 L 267 502 L 260 536 L 259 571 L 264 604 L 279 645 L 298 676 L 323 703 L 429 791 L 530 879 L 544 889 L 564 900 L 593 909 L 615 912 L 640 912 L 663 909 L 684 903 L 706 893 L 723 882 L 941 691 L 953 676 L 963 660 L 973 640 L 982 617 L 991 577 L 992 539 L 986 502 L 976 472 L 968 456 L 957 439 L 931 411 L 778 281 L 734 241 L 718 229 L 692 215 L 663 206 L 643 203 Z
M 624 238 L 643 239 L 668 244 L 685 251 L 704 262 L 744 299 L 907 436 L 927 459 L 943 487 L 952 513 L 957 550 L 955 582 L 945 618 L 928 651 L 914 669 L 704 854 L 692 862 L 670 872 L 641 878 L 615 878 L 593 874 L 579 869 L 554 855 L 347 678 L 327 656 L 309 625 L 298 592 L 294 562 L 296 530 L 305 497 L 315 476 L 323 464 L 343 442 L 497 308 L 546 262 L 571 248 L 583 244 L 602 240 Z
M 618 316 L 600 318 L 576 324 L 553 335 L 544 341 L 399 469 L 381 494 L 370 521 L 366 541 L 366 576 L 369 592 L 375 610 L 384 626 L 396 642 L 410 656 L 478 712 L 545 771 L 562 783 L 579 791 L 604 798 L 631 800 L 655 797 L 675 791 L 704 775 L 769 717 L 835 661 L 853 643 L 867 622 L 878 595 L 883 570 L 883 538 L 878 514 L 874 503 L 864 484 L 854 471 L 707 344 L 689 332 L 665 322 L 649 318 Z
M 622 350 L 638 351 L 657 355 L 685 369 L 712 395 L 816 482 L 830 497 L 841 516 L 846 531 L 849 551 L 848 573 L 844 589 L 834 611 L 827 621 L 812 636 L 730 706 L 686 746 L 674 754 L 661 760 L 634 766 L 605 764 L 589 759 L 577 753 L 568 747 L 491 679 L 436 634 L 420 618 L 411 604 L 404 588 L 399 563 L 400 540 L 404 525 L 411 509 L 420 496 L 429 487 L 486 439 L 567 366 L 590 355 Z" fill="url(#w)" fill-rule="evenodd"/><path d="M 992 698 L 990 683 L 988 680 L 977 706 L 969 717 L 956 730 L 950 751 L 944 765 L 933 781 L 921 793 L 903 807 L 704 979 L 678 992 L 662 997 L 642 1000 L 615 1000 L 601 998 L 581 992 L 558 980 L 536 963 L 461 898 L 335 796 L 322 784 L 314 774 L 303 753 L 296 731 L 286 722 L 276 709 L 268 693 L 264 681 L 262 682 L 260 691 L 259 718 L 263 744 L 270 766 L 280 785 L 294 804 L 314 823 L 451 934 L 530 1003 L 546 1014 L 566 1024 L 580 1029 L 612 1035 L 647 1035 L 666 1032 L 687 1026 L 717 1012 L 726 1006 L 779 959 L 945 818 L 960 802 L 971 786 L 983 760 L 991 728 Z" fill="url(#w)"/><path d="M 618 425 L 617 426 L 610 426 L 593 431 L 579 439 L 511 498 L 495 514 L 488 525 L 482 540 L 480 559 L 481 560 L 481 572 L 485 586 L 495 602 L 508 615 L 543 644 L 575 673 L 586 681 L 606 689 L 611 690 L 637 690 L 657 684 L 666 679 L 736 617 L 750 603 L 755 596 L 762 581 L 765 568 L 766 553 L 765 552 L 764 537 L 757 520 L 750 510 L 676 444 L 667 437 L 646 428 L 630 425 Z
M 618 455 L 633 456 L 649 462 L 709 515 L 716 520 L 725 529 L 730 538 L 734 557 L 733 567 L 728 581 L 725 586 L 652 653 L 642 658 L 629 661 L 616 660 L 600 653 L 591 646 L 523 586 L 517 576 L 513 562 L 514 544 L 521 529 L 593 465 L 603 459 Z" fill="url(#o)" fill-rule="evenodd"/></svg>